<?xml version="1.0" encoding="UTF-8" standalone="no"?>
<svg width="128" height="128" viewBox="0 0 32 32" version="1.1" id="svg6" sodipodi:docname="Package.svg"
    inkscape:version="1.4.2 (f4327f4, 2025-05-13)" xmlns:inkscape="http://www.inkscape.org/namespaces/inkscape"
    xmlns:sodipodi="http://sodipodi.sourceforge.net/DTD/sodipodi-0.dtd" xmlns="http://www.w3.org/2000/svg"
    xmlns:svg="http://www.w3.org/2000/svg">
    <defs id="defs6" />
    <sodipodi:namedview id="namedview6" pagecolor="#ffffff" bordercolor="#000000" borderopacity="0.25"
        inkscape:showpageshadow="2" inkscape:pageopacity="0.0" inkscape:pagecheckerboard="0"
        inkscape:deskcolor="#d1d1d1" inkscape:zoom="2.1484375" inkscape:cx="25.6" inkscape:cy="76.8"
        inkscape:window-width="1366" inkscape:window-height="715" inkscape:window-x="-8" inkscape:window-y="-8"
        inkscape:window-maximized="1" inkscape:current-layer="svg6" />
    <g fill="none" id="g6">
        <path fill="#F3C07B"
            d="M15.35 2.143c.32-.19.71-.19 1.02 0l10.92 6.64c.26.16.42.45.42.75L15.86 17.5L4 9.632v-.1c0-.3.16-.59.42-.74z"
            id="path1" style="fill:#b7b7b7;fill-opacity:1" />
        <path fill="#FFCE7C"
            d="m15.856 16.246l11.36-6.9a.328.328 0 0 1 .496.282v12.34a1.73 1.73 0 0 1-.83 1.48l-10.64 6.46a.3.3 0 0 1-.087.03a.3.3 0 0 1-.083.011a.9.9 0 0 1-.682-.083h.006L13 19z"
            id="path2" style="fill:#bdbdbd;fill-opacity:1" />
        <path fill="#E19747"
            d="M15.86 29.622v-13.37l-11.35-6.9a.331.331 0 0 0-.51.28v12.34c0 .61.32 1.17.83 1.48l10.57 6.42a.3.3 0 0 0 .46-.25"
            id="path3" style="fill:#949494;fill-opacity:1" />
        <path fill="#D3D3D3"
            d="M14.5 26.782v-1.96c0-.23-.12-.44-.31-.56l-2.8-1.69c-.19-.11-.43.02-.43.24v1.96c0 .23.12.44.31.56l2.8 1.69c.19.11.43-.02.43-.24"
            id="path4" />
        <path fill="#8C5543" d="M11.76 16.553v-4.56l-3.28-.22v3.16c0 .1.05.2.14.26l2.68 1.63c.2.11.46-.03.46-.27"
            id="path5" style="fill:#686868;fill-opacity:1" />
        <path fill="#A56953" d="m20.34 4.563l-11.86 7.21l3.28 2l11.86-7.2z" id="path6"
            style="fill:#7c7c7c;fill-opacity:1" />
    </g>
</svg>